<svg width="26" height="26" viewBox="0 0 26 26" fill="none" xmlns="http://www.w3.org/2000/svg">
<circle cx="13" cy="13" r="11.375" fill="white"/>
<path d="M8.70625 15.1549C8.79513 14.419 9.09695 14.007 9.66571 13.5846C10.4795 13.0126 11.4961 13.3361 11.4961 13.3361V11.4165C11.7432 11.4102 11.9904 11.4248 12.2349 11.4603V13.9307C12.2349 13.9307 11.2186 13.6071 10.4048 14.1794C9.83637 14.6015 9.53394 15.0138 9.44537 15.7497C9.44259 16.1493 9.51758 16.6717 9.86291 17.1233C9.77753 17.0796 9.6905 17.0297 9.60183 16.9737C8.84111 16.4628 8.70254 15.6965 8.70625 15.1549ZM16.4323 7.86713C15.8724 7.25368 15.6607 6.63431 15.5842 6.19922H16.2884C16.2884 6.19922 16.148 7.34005 17.1714 8.46195L17.1856 8.47703C16.9098 8.30354 16.6568 8.09876 16.4323 7.86713ZM19.8248 9.60633V12.027C19.8248 12.027 18.9261 11.9918 18.2611 11.8226C17.3325 11.586 16.7356 11.2231 16.7356 11.2231C16.7356 11.2231 16.3233 10.9643 16.29 10.9462V15.9449C16.29 16.2233 16.2138 16.9184 15.9814 17.4981C15.678 18.2565 15.2099 18.7543 15.1238 18.856C15.1238 18.856 14.5544 19.5289 13.5499 19.9821C12.6444 20.3908 11.8494 20.3805 11.6118 20.3908C11.6118 20.3908 10.2376 20.4453 9.00097 19.6416C8.73356 19.4645 8.48395 19.2639 8.25537 19.0424L8.26154 19.0468C9.49845 19.8504 10.8724 19.796 10.8724 19.796C11.1103 19.7857 11.9053 19.796 12.8104 19.3872C13.814 18.9341 14.3843 18.2612 14.3843 18.2612C14.4695 18.1595 14.9398 17.6617 15.242 16.903C15.4737 16.3235 15.5506 15.6282 15.5506 15.3498V10.3517C15.5839 10.37 15.9959 10.6288 15.9959 10.6288C15.9959 10.6288 16.593 10.9921 17.5216 11.2284C18.187 11.3976 19.0854 11.4328 19.0854 11.4328V9.53593C19.3927 9.60485 19.6548 9.62349 19.8248 9.60633Z" fill="#EE1D52"/>
<path d="M19.0859 9.53593V11.4322C19.0859 11.4322 18.1875 11.397 17.5222 11.2278C16.5935 10.9912 15.9964 10.6283 15.9964 10.6283C15.9964 10.6283 15.5844 10.3694 15.5511 10.3511V15.3504C15.5511 15.6287 15.4748 16.3241 15.2425 16.9036C14.9391 17.6622 14.4709 18.16 14.3848 18.2618C14.3848 18.2618 13.8151 18.9347 12.8109 19.3878C11.9058 19.7966 11.1108 19.7863 10.8729 19.7966C10.8729 19.7966 9.49894 19.851 8.26204 19.0474L8.25587 19.043C8.12528 18.9165 8.00235 18.783 7.8877 18.6431C7.49299 18.1618 7.25104 17.5927 7.19024 17.4304C7.19014 17.4297 7.19014 17.429 7.19024 17.4283C7.09241 17.1461 6.88688 16.4685 6.91496 15.8121C6.96465 14.6541 7.37201 13.9434 7.47972 13.7653C7.76497 13.2798 8.13597 12.8453 8.5762 12.4813C8.96469 12.1672 9.40503 11.9173 9.87915 11.7419C10.3917 11.5359 10.9405 11.4254 11.4963 11.4165V13.3361C11.4963 13.3361 10.4797 13.0137 9.66621 13.5846C9.09744 14.007 8.79563 14.419 8.70675 15.1549C8.70304 15.6965 8.84161 16.4628 9.60171 16.974C9.69038 17.0302 9.77741 17.08 9.86279 17.1236C9.99558 17.2962 10.1572 17.4466 10.3411 17.5688C11.0836 18.0388 11.7058 18.0716 12.5014 17.7664C13.0319 17.5623 13.4312 17.1023 13.6164 16.5927C13.7327 16.2744 13.7312 15.9541 13.7312 15.6228V6.19922H15.5829C15.6594 6.63431 15.8711 7.25368 16.4309 7.86713C16.6555 8.09876 16.9084 8.30354 17.1842 8.47703C17.2657 8.56133 17.6823 8.97809 18.2171 9.23394C18.4937 9.36619 18.7852 9.46752 19.0859 9.53593Z" fill="#212122"/>
<path d="M6.45337 16.8438V16.8452L6.49931 16.9698C6.49404 16.9553 6.47696 16.9112 6.45337 16.8438Z" fill="#69C9D0"/>
<path d="M9.87897 11.7455C9.40485 11.921 8.96451 12.1709 8.57602 12.4849C8.13564 12.8497 7.76474 13.2851 7.47985 13.7716C7.37214 13.9491 6.96478 14.6604 6.91509 15.8184C6.88701 16.4747 7.09254 17.1524 7.19037 17.4345C7.19027 17.4352 7.19027 17.4359 7.19037 17.4366C7.25209 17.5975 7.49312 18.1666 7.88783 18.6493C8.00248 18.7893 8.12541 18.9228 8.256 19.0492C7.83758 18.7719 7.46442 18.4365 7.14871 18.0542C6.75739 17.5771 6.51606 17.0139 6.45311 16.8477C6.45303 16.8465 6.45303 16.8454 6.45311 16.8442V16.8421C6.35497 16.5602 6.14882 15.8823 6.17752 15.2251C6.22721 14.0671 6.63457 13.3563 6.74227 13.1782C7.02708 12.6917 7.398 12.2563 7.83845 11.8916C8.22686 11.5774 8.66721 11.3275 9.1414 11.1521C9.43717 11.0345 9.74529 10.9478 10.0604 10.8933C10.5354 10.8139 11.0204 10.807 11.4976 10.8729V11.4201C10.9414 11.4288 10.392 11.5393 9.87897 11.7455Z" fill="#69C9D0"/>
<path d="M15.5841 6.20449H13.7324V15.6284C13.7324 15.9597 13.7324 16.2791 13.6176 16.5983C13.4306 17.1076 13.0328 17.5675 12.5026 17.7716C11.7067 18.0781 11.0846 18.044 10.3424 17.574C10.1581 17.4525 9.99608 17.3026 9.86279 17.1304C10.4951 17.4537 11.0611 17.448 11.7623 17.1783C12.2922 16.9742 12.6906 16.5143 12.877 16.0046C12.9936 15.6864 12.9921 15.366 12.9921 15.0351V5.60938H15.5489C15.5489 5.60938 15.5202 5.84363 15.5841 6.20449ZM19.0856 9.01678V9.5412C18.7854 9.47268 18.4944 9.37135 18.2184 9.23921C17.6836 8.98336 17.2669 8.5666 17.1855 8.4823C17.28 8.54179 17.3781 8.59592 17.4793 8.64439C18.1295 8.95556 18.7699 9.04843 19.0856 9.01678Z" fill="#69C9D0"/>
</svg>
