<svg width="20" height="20" viewBox="0 0 20 20" fill="none" xmlns="http://www.w3.org/2000/svg">
<path d="M3.22917 0.25C1.58683 0.25 0.25 1.58683 0.25 3.22917V16.7708C0.25 18.4132 1.58683 19.75 3.22917 19.75H16.7708C18.4132 19.75 19.75 18.4132 19.75 16.7708V3.22917C19.75 1.58683 18.4132 0.25 16.7708 0.25H3.22917ZM8.10417 5.66667C8.55321 5.66667 8.91667 6.03013 8.91667 6.47917V7.29167H11.0833V6.47917C11.0833 6.03013 11.4468 5.66667 11.8958 5.66667C12.3449 5.66667 12.7083 6.03013 12.7083 6.47917V7.29167H13.5208C13.9699 7.29167 14.3333 7.65513 14.3333 8.10417C14.3333 8.55321 13.9699 8.91667 13.5208 8.91667H12.7083V11.0833H13.5208C13.9699 11.0833 14.3333 11.4468 14.3333 11.8958C14.3333 12.3449 13.9699 12.7083 13.5208 12.7083H12.7083V13.5208C12.7083 13.9699 12.3449 14.3333 11.8958 14.3333C11.4468 14.3333 11.0833 13.9699 11.0833 13.5208V12.7083H8.91667V13.5208C8.91667 13.9699 8.55321 14.3333 8.10417 14.3333C7.65513 14.3333 7.29167 13.9699 7.29167 13.5208V12.7083H6.47917C6.03013 12.7083 5.66667 12.3449 5.66667 11.8958C5.66667 11.4468 6.03013 11.0833 6.47917 11.0833H7.29167V8.91667H6.47917C6.03013 8.91667 5.66667 8.55321 5.66667 8.10417C5.66667 7.65513 6.03013 7.29167 6.47917 7.29167H7.29167V6.47917C7.29167 6.03013 7.65513 5.66667 8.10417 5.66667ZM8.91667 8.91667V11.0833H11.0833V8.91667H8.91667Z" fill="#D1FD0A"/>
</svg>
