<svg width="172" height="30" viewBox="0 0 172 30" fill="none" xmlns="http://www.w3.org/2000/svg">
<path d="M13.438 30.0003C11.5772 30.0003 9.82928 29.6746 8.19439 29.0233C6.57279 28.3588 5.14392 27.3885 3.90779 26.1124C2.68494 24.8364 1.72793 23.2746 1.03676 21.4271C0.345587 19.5662 0 17.4395 0 15.047C0 11.9102 0.584839 9.23186 1.75452 7.01213C2.9242 4.77911 4.52586 3.07111 6.5595 1.88814C8.59315 0.69188 10.886 0.09375 13.438 0.09375C16.9736 0.09375 19.7715 0.917841 21.8318 2.56602C23.9053 4.20091 25.3076 6.5004 26.0386 9.46447L21.134 10.242C20.589 8.54068 19.6984 7.18492 18.4623 6.17475C17.2262 5.15128 15.6511 4.63954 13.7371 4.63954C11.8098 4.61296 10.2081 5.03165 8.93209 5.89562C7.65607 6.75958 6.69242 7.97578 6.04112 9.54422C5.40312 11.1126 5.08411 12.9469 5.08411 15.047C5.08411 17.1471 5.40312 18.9747 6.04112 20.5299C6.67913 22.0717 7.63614 23.2746 8.91215 24.1386C10.2015 25.0026 11.8098 25.4478 13.7371 25.4744C15.1859 25.4877 16.4552 25.2285 17.5452 24.6969C18.6351 24.1519 19.5257 23.3345 20.2168 22.2445C20.908 21.1413 21.3732 19.7656 21.6125 18.1174H16.5483V14.3492H26.7165C26.7431 14.5619 26.763 14.8742 26.7763 15.2863C26.7896 15.6983 26.7963 15.9442 26.7963 16.024C26.7963 18.7355 26.2579 21.148 25.1813 23.2613C24.118 25.3615 22.5894 27.0096 20.5956 28.2059C18.6019 29.4022 16.216 30.0003 13.438 30.0003Z" fill="#D1FD0A"/>
<path d="M30.7049 29.4022V0.69188H42.5678C42.847 0.69188 43.2059 0.705172 43.6445 0.731755C44.0831 0.745048 44.4885 0.784923 44.8607 0.851382C46.5222 1.10393 47.8912 1.65553 48.9678 2.50621C50.0578 3.35688 50.8619 4.43352 51.3803 5.73612C51.912 7.02542 52.1778 8.46093 52.1778 10.0427C52.1778 12.382 51.5863 14.3957 50.4034 16.0838C49.2204 17.7585 47.4061 18.7953 44.9604 19.1941L42.9068 19.3735H35.5099V29.4022H30.7049ZM47.1934 29.4022L41.5311 17.7187L46.4158 16.642L52.6364 29.4022H47.1934ZM35.5099 14.8875H42.3685C42.6343 14.8875 42.9334 14.8742 43.2657 14.8476C43.598 14.8211 43.9037 14.7679 44.1828 14.6881C44.9803 14.4888 45.605 14.1365 46.0569 13.6314C46.5222 13.1264 46.8478 12.5548 47.0339 11.9168C47.2333 11.2788 47.333 10.6541 47.333 10.0427C47.333 9.43124 47.2333 8.80652 47.0339 8.16851C46.8478 7.51722 46.5222 6.93902 46.0569 6.43394C45.605 5.92885 44.9803 5.57661 44.1828 5.37724C43.9037 5.29749 43.598 5.25097 43.2657 5.23767C42.9334 5.21109 42.6343 5.1978 42.3685 5.1978H35.5099V14.8875Z" fill="#D1FD0A"/>
<path d="M88.3147 29.4018V0.691483H92.6412L102.57 21.0279L112.499 0.691483H116.826V29.4018H112.34V10.9993L103.527 29.4018H101.613L92.8206 10.9993V29.4018H88.3147Z" fill="#D1FD0A"/>
<path d="M133.895 29.9999C131.609 29.9999 129.595 29.5347 127.854 28.6043C126.126 27.6738 124.77 26.3646 123.787 24.6765C122.816 22.9885 122.331 21.008 122.331 18.7351V0.731358L127.196 0.691483V18.6155C127.196 19.6921 127.375 20.6558 127.734 21.5064C128.106 22.3571 128.605 23.0815 129.23 23.6796C129.854 24.2645 130.572 24.7098 131.383 25.0155C132.194 25.3212 133.031 25.474 133.895 25.474C134.786 25.474 135.63 25.3212 136.427 25.0155C137.238 24.6965 137.956 24.2445 138.58 23.6597C139.205 23.0616 139.697 22.3372 140.056 21.4865C140.415 20.6358 140.594 19.6788 140.594 18.6155V0.691483H145.459V18.7351C145.459 21.008 144.967 22.9885 143.983 24.6765C143.013 26.3646 141.657 27.6738 139.916 28.6043C138.188 29.5347 136.181 29.9999 133.895 29.9999Z" fill="#D1FD0A"/>
<path d="M160.354 29.9999C158.254 29.9999 156.36 29.6344 154.672 28.9033C152.997 28.1723 151.615 27.1289 150.525 25.7731C149.449 24.404 148.764 22.7824 148.472 20.9083L153.456 20.1507C153.881 21.852 154.752 23.1679 156.068 24.0983C157.397 25.0288 158.926 25.494 160.654 25.494C161.677 25.494 162.641 25.3345 163.544 25.0155C164.448 24.6965 165.179 24.2313 165.738 23.6198C166.309 23.0084 166.595 22.2574 166.595 21.3669C166.595 20.9681 166.528 20.6026 166.396 20.2703C166.263 19.9247 166.063 19.619 165.797 19.3532C165.545 19.0873 165.213 18.8481 164.801 18.6354C164.402 18.4094 163.937 18.2167 163.405 18.0572L155.988 15.8641C155.35 15.678 154.659 15.4321 153.915 15.1264C153.184 14.8074 152.486 14.3754 151.821 13.8304C151.17 13.2722 150.631 12.5677 150.206 11.717C149.794 10.8531 149.588 9.78972 149.588 8.527C149.588 6.67944 150.053 5.13094 150.984 3.88151C151.927 2.61879 153.19 1.67508 154.772 1.05036C156.367 0.425647 158.135 0.119935 160.075 0.133228C162.042 0.146519 163.797 0.48546 165.339 1.15005C166.881 1.80135 168.17 2.75171 169.207 4.00114C170.244 5.25057 170.975 6.75919 171.4 8.527L166.236 9.42419C166.023 8.41402 165.611 7.5567 165 6.85223C164.402 6.13447 163.664 5.58951 162.787 5.21734C161.923 4.84517 160.999 4.64579 160.015 4.61921C159.058 4.60592 158.168 4.75213 157.344 5.05784C156.533 5.35026 155.875 5.7756 155.37 6.33385C154.878 6.89211 154.632 7.5434 154.632 8.28774C154.632 8.99221 154.845 9.5704 155.27 10.0223C155.696 10.461 156.221 10.8132 156.845 11.079C157.483 11.3316 158.128 11.5442 158.779 11.717L163.923 13.1525C164.628 13.3386 165.419 13.5912 166.296 13.9102C167.173 14.2292 168.017 14.6745 168.828 15.246C169.639 15.8175 170.303 16.5685 170.822 17.499C171.353 18.4294 171.619 19.6124 171.619 21.0479C171.619 22.5366 171.307 23.8458 170.682 24.9756C170.071 26.0921 169.24 27.0225 168.19 27.7669C167.14 28.5112 165.937 29.0695 164.581 29.4416C163.239 29.8138 161.83 29.9999 160.354 29.9999Z" fill="#D1FD0A"/>
<rect x="55.1277" width="29.9003" height="29.9003" rx="14.9502" fill="#D1FD0A"/>
<path d="M64.407 14.3602L72.9854 5.18423L70.1168 15.8901L64.407 14.3602Z" fill="black"/>
<path d="M75.948 15.5402L67.7264 24.8118L70.595 14.1059L75.948 15.5402Z" fill="black"/>
</svg>
