<svg width="14" height="14" viewBox="0 0 14 14" fill="none" xmlns="http://www.w3.org/2000/svg">
<path d="M3.69741 8.65852C3.76578 8.09244 3.99795 7.7755 4.43546 7.45059C5.06146 7.01056 5.84343 7.25947 5.84343 7.25947V5.78284C6.03353 5.77798 6.22371 5.78925 6.41174 5.81651V7.71679C6.41174 7.71679 5.63002 7.46788 5.00402 7.90814C4.56674 8.23282 4.3341 8.54999 4.26597 9.11607C4.26383 9.42346 4.32152 9.82526 4.58716 10.1727C4.52148 10.139 4.45453 10.1006 4.38632 10.0576C3.80115 9.66463 3.69457 9.07512 3.69741 8.65852ZM9.6405 3.05254C9.20987 2.58066 9.04702 2.10422 8.98815 1.76953H9.52988C9.52988 1.76953 9.42186 2.64709 10.2091 3.51009L10.22 3.5217C10.0078 3.38824 9.81325 3.23072 9.6405 3.05254ZM12.2501 4.39039V6.25245C12.2501 6.25245 11.5589 6.22537 11.0473 6.09523C10.333 5.91321 9.87386 5.63403 9.87386 5.63403C9.87386 5.63403 9.5567 5.43495 9.53106 5.42107V9.26624C9.53106 9.48034 9.47243 10.015 9.29367 10.461C9.06032 11.0443 8.7002 11.4273 8.63396 11.5055C8.63396 11.5055 8.19598 12.0232 7.42327 12.3717C6.72676 12.6862 6.11524 12.6782 5.93245 12.6862C5.93245 12.6862 4.87535 12.728 3.92412 12.1098C3.71843 11.9736 3.52642 11.8193 3.35059 11.6489L3.35533 11.6523C4.3068 12.2705 5.36366 12.2286 5.36366 12.2286C5.54669 12.2206 6.15821 12.2286 6.85448 11.9142C7.62648 11.5656 8.06517 11.048 8.06517 11.048C8.13069 10.9697 8.49248 10.5868 8.72488 10.0032C8.90316 9.55747 8.96228 9.02256 8.96228 8.80846V4.96375C8.98791 4.97785 9.30483 5.17694 9.30483 5.17694C9.30483 5.17694 9.76418 5.45634 10.4785 5.63813C10.9903 5.76827 11.6814 5.79535 11.6814 5.79535V4.33624C11.9178 4.38925 12.1193 4.40358 12.2501 4.39039Z" fill="#EE1D52"/>
<path d="M11.6816 4.33624V5.79489C11.6816 5.79489 10.9906 5.76782 10.4788 5.63768C9.76445 5.45566 9.3051 5.17648 9.3051 5.17648C9.3051 5.17648 8.98819 4.9774 8.96255 4.96329V8.80891C8.96255 9.02301 8.90391 9.55792 8.72516 10.0036C8.4918 10.5872 8.13168 10.9702 8.06545 11.0484C8.06545 11.0484 7.62722 11.5661 6.85475 11.9146C6.15848 12.2291 5.54696 12.2211 5.36393 12.2291C5.36393 12.2291 4.30707 12.2709 3.3556 11.6527L3.35086 11.6493C3.2504 11.5521 3.15584 11.4494 3.06765 11.3417C2.76403 10.9715 2.57791 10.5338 2.53114 10.4089C2.53106 10.4083 2.53106 10.4078 2.53114 10.4073C2.45589 10.1902 2.29779 9.66895 2.31939 9.16408C2.35761 8.27332 2.67097 7.72658 2.75382 7.58961C2.97324 7.2161 3.25862 6.88191 3.59727 6.60192C3.8961 6.36032 4.23482 6.16809 4.59953 6.03311C4.9938 5.87463 5.41599 5.78969 5.84346 5.78284V7.25947C5.84346 7.25947 5.0615 7.01147 4.43573 7.45059C3.99822 7.7755 3.76605 8.09244 3.69768 8.65852C3.69484 9.07512 3.80142 9.66463 4.38612 10.0578C4.45433 10.101 4.52127 10.1394 4.58695 10.1729C4.6891 10.3057 4.81342 10.4214 4.95491 10.5153C5.52607 10.8769 6.00465 10.9021 6.61665 10.6673C7.02472 10.5103 7.33191 10.1565 7.47434 9.76451C7.56384 9.5197 7.56265 9.27329 7.56265 9.01846V1.76953H8.987C9.04587 2.10422 9.20872 2.58066 9.63935 3.05254C9.81209 3.23072 10.0067 3.38824 10.2188 3.5217C10.2815 3.58654 10.602 3.90712 11.0134 4.10393C11.2261 4.20566 11.4503 4.28361 11.6816 4.33624Z" fill="white"/>
<path d="M1.96387 9.95703V9.95817L1.99921 10.054C1.99515 10.0428 1.98202 10.0089 1.96387 9.95703Z" fill="#69C9D0"/>
<path d="M4.59936 6.03378C4.23465 6.16876 3.89593 6.36099 3.59709 6.6026C3.25834 6.88321 2.97302 7.2181 2.75388 7.59233C2.67103 7.72884 2.35767 8.27604 2.31945 9.1668C2.29785 9.67167 2.45595 10.1929 2.53121 10.41C2.53112 10.4105 2.53112 10.4111 2.53121 10.4116C2.57868 10.5354 2.76409 10.9731 3.06771 11.3444C3.15591 11.4521 3.25046 11.5548 3.35092 11.652C3.02906 11.4387 2.74202 11.1808 2.49916 10.8867C2.19815 10.5197 2.01251 10.0864 1.96408 9.95858C1.96402 9.95767 1.96402 9.95676 1.96408 9.95585V9.95426C1.88859 9.73743 1.73001 9.21594 1.75209 8.71038C1.79031 7.81962 2.10366 7.27288 2.18651 7.13591C2.4056 6.76165 2.69092 6.42675 3.02973 6.14618C3.3285 5.9045 3.66724 5.71225 4.03199 5.57737C4.25951 5.4869 4.49652 5.42015 4.73894 5.37829C5.10428 5.31716 5.47741 5.31186 5.84447 5.36259V5.78351C5.4166 5.79022 4.99399 5.87516 4.59936 6.03378Z" fill="#69C9D0"/>
<path d="M8.98803 1.77028H7.56368V9.01944C7.56368 9.27426 7.56368 9.51999 7.47537 9.76549C7.33152 10.1573 7.02552 10.5111 6.61768 10.6681C6.00545 10.9038 5.52687 10.8776 4.95594 10.5161C4.81421 10.4226 4.68957 10.3073 4.58704 10.1748C5.07345 10.4235 5.50883 10.4192 6.04818 10.2117C6.45578 10.0547 6.76225 9.70087 6.90564 9.30885C6.99537 9.06403 6.99418 8.81762 6.99418 8.56302V1.3125H8.96097C8.96097 1.3125 8.93889 1.4927 8.98803 1.77028ZM11.6815 3.93358V4.33698C11.4506 4.28427 11.2267 4.20633 11.0144 4.10468C10.603 3.90787 10.2825 3.58729 10.2199 3.52245C10.2926 3.56821 10.368 3.60984 10.4458 3.64713C10.946 3.88648 11.4386 3.95793 11.6815 3.93358Z" fill="#69C9D0"/>
</svg>
